HIERARCHY
ROOT Hips
{
  OFFSET 58.0583 97.024 27.2003
  CHANNELS 6 Xposition Yposition Zposition Zrotation Xrotation Yrotation
  JOINT spine
  {
    OFFSET 0 7.96568 0.458067
    CHANNELS 3 Zrotation Xrotation Yrotation
    JOINT spine1
    {
      OFFSET 0 10.2431 0
      CHANNELS 3 Zrotation Xrotation Yrotation
      JOINT spine2
      {
        OFFSET 0 9.81475 0
        CHANNELS 3 Zrotation Xrotation Yrotation
        JOINT Neck
        {
          OFFSET 0 25.1986 1.20138
          CHANNELS 3 Zrotation Xrotation Yrotation
          JOINT Head
          {
            OFFSET 0 7.61315 0
            CHANNELS 3 Zrotation Xrotation Yrotation
            End Site
            {
              OFFSET 0 18.4281 -6.07733
            }
          }
        }
        JOINT RightShoulder
        {
          OFFSET -4.1327 10.5992 -0.575451
          CHANNELS 3 Zrotation Xrotation Yrotation
          JOINT RightArm
          {
            OFFSET 0 13.9018 0
            CHANNELS 3 Zrotation Xrotation Yrotation
            JOINT RightArmRoll
            {
              OFFSET 0 7.01788 0
              CHANNELS 3 Zrotation Xrotation Yrotation
              JOINT RightForeArm
              {
                OFFSET 0 20.4406 0
                CHANNELS 3 Zrotation Xrotation Yrotation
                JOINT RightForeArmRoll
                {
                  OFFSET 0 7.87516 0
                  CHANNELS 3 Zrotation Xrotation Yrotation
                  JOINT RightHand
                  {
                    OFFSET 0 15.8037 0
                    CHANNELS 3 Zrotation Xrotation Yrotation
                    End Site
                    {
                      OFFSET 0 0 0
                    }
                  }
                }
              }
            }
          }
        }
        JOINT LeftShoulder
        {
          OFFSET 4.1327 10.5992 -0.575451
          CHANNELS 3 Zrotation Xrotation Yrotation
          JOINT LeftArm
          {
            OFFSET 0 13.9018 0
            CHANNELS 3 Zrotation Xrotation Yrotation
            JOINT LeftArmRoll
            {
              OFFSET 0 7.01789 0
              CHANNELS 3 Zrotation Xrotation Yrotation
              JOINT LeftForeArm
              {
                OFFSET 0 20.4406 0
                CHANNELS 3 Zrotation Xrotation Yrotation
                JOINT LeftForeArmRoll
                {
                  OFFSET 0 7.87516 0
                  CHANNELS 3 Zrotation Xrotation Yrotation
                  JOINT LeftHand
                  {
                    OFFSET 0 15.8037 0
                    CHANNELS 3 Zrotation Xrotation Yrotation
                    End Site
                    {
                      OFFSET 0 0 0
                    }
                  }
                }
              }
            }
          }
        }
      }
    }
  }
  JOINT RightUpLeg
  {
    OFFSET -7.06048 -1.2947 -1.0861
    CHANNELS 3 Zrotation Xrotation Yrotation
    JOINT RightUpLegRoll
    {
      OFFSET 0 18.5308 0
      CHANNELS 3 Zrotation Xrotation Yrotation
      JOINT RightLeg
      {
        OFFSET 0 -22.9476 0
        CHANNELS 3 Zrotation Xrotation Yrotation
        JOINT RightLegRoll
        {
          OFFSET 0 23.0226 0
          CHANNELS 3 Zrotation Xrotation Yrotation
          JOINT RightFoot
          {
            OFFSET 0 19.1625 0
            CHANNELS 3 Zrotation Xrotation Yrotation
            JOINT RightToeBase
            {
              OFFSET 0 16.0188 0
              CHANNELS 3 Zrotation Xrotation Yrotation
              End Site
              {
                OFFSET 0.00678979 7.75782 -0.894206
              }
            }
          }
        }
      }
    }
  }
  JOINT LeftUpLeg
  {
    OFFSET 7.06048 -1.2947 -1.0861
    CHANNELS 3 Zrotation Xrotation Yrotation
    JOINT LeftUpLegRoll
    {
      OFFSET 0 18.5309 0
      CHANNELS 3 Zrotation Xrotation Yrotation
      JOINT LeftLeg
      {
        OFFSET 0 22.9475 0
        CHANNELS 3 Zrotation Xrotation Yrotation
        JOINT LeftLegRoll
        {
          OFFSET 0 23.2355 0
          CHANNELS 3 Zrotation Xrotation Yrotation
          JOINT LeftFoot
          {
            OFFSET 0 18.9496 0
            CHANNELS 3 Zrotation Xrotation Yrotation
            JOINT LeftToeBase
            {
              OFFSET 0 16.0188 0
              CHANNELS 3 Zrotation Xrotation Yrotation
              End Site
              {
                OFFSET -0.0304289 7.75782 -0.894206
              }
            }
          }
        }
      }
    }
  }
}
MOTION
Frames: 12
Frame Time: 0.00208333
58.4494 96.9501 26.3088 0.00276082 -4.6617 2.39775 0.0774191 -0.663765 -0.325934 0.158069 2.67486 -0.650055 0.16592 4.31989 -0.653196 -4.72681 7.09112 1.99692 3.60446 8.82887 1.08054 70.8623 -4.97111 -3.81811 95.8595 10.6498 22.3327 -6.36111e-015 1.59028e-015 -0 -0.192164 12.1494 -0.881661 -2.71202e-005 -4.22651e-007 -3.0078 8.03024 -4.95135 0.697618 -64.1362 -2.00703 1.76894 -101.229 12.0477 -12.2889 2.35097e-005 2.03171e-006 8.05029e-007 -3.66766 3.85548 1.01117 -1.14e-005 2.0855e-006 3 -8.02976 -4.95144 -0.697647 176.155 -3.71678 3.63195 180 7.01514e-015 178.79 178.367 5.1145 179.675 3.99226e-006 -3.03929e-006 0.0567329 -18.9383 68.1148 19.6559 8.13649 25.2327 -3.48774 -174.53 -4.16148 -2.48324 4.5067e-006 -1.99009e-005 -1.19322 -2.6664 -7.44513 -0.0060212 -8.8353e-007 2.87672e-007 -0.139624 19.8184 69.2424 -20.6233 -8.13649 25.2327 3.48774 
58.4508 96.9493 26.3003 0.00280285 -4.65018 2.38767 0.077434 -0.663682 -0.32676 0.157833 2.67503 -0.651472 0.165709 4.32006 -0.654615 -4.70047 7.16471 2.00603 3.60417 8.81855 1.09314 70.8285 -4.99496 -3.82774 95.8924 10.5287 22.5059 7.55382e-015 -1.59028e-015 3.18055e-015 -0.312101 12.3087 -0.862901 -2.71202e-005 -4.22651e-007 -3.0078 8.03024 -4.95135 0.697618 -64.138 -2.01213 1.77193 -101.213 11.9435 -12.3079 2.35097e-005 2.03171e-006 8.05029e-007 -3.67926 4.00217 1.01609 -1.14e-005 2.0855e-006 3 -8.02976 -4.95144 -0.697647 176.151 -3.69994 3.63163 180 7.01514e-015 178.79 178.366 5.11543 179.675 3.99226e-006 -3.03929e-006 0.0567329 -18.936 68.1122 19.6535 8.13649 25.2327 -3.48774 -174.532 -4.14991 -2.48302 4.5067e-006 -1.99009e-005 -1.19324 -2.66948 -7.44413 -0.00644573 -8.8353e-007 2.87672e-007 -0.139624 19.8165 69.2404 -20.6212 -8.13649 25.2327 3.48774 
58.4586 96.9466 26.313 0.00279894 -4.63883 2.37729 0.077456 -0.663526 -0.327548 0.157601 2.67534 -0.652788 0.165502 4.32037 -0.655932 -4.67437 7.23783 2.01492 3.60457 8.80852 1.10546 70.7963 -5.01847 -3.83728 95.9245 10.4058 22.6789 1.98785e-015 0 -0 -0.431397 12.4704 -0.844447 -2.71202e-005 -4.22651e-007 -3.0078 8.03024 -4.95135 0.697618 -64.1397 -2.01798 1.77533 -101.196 11.8376 -12.3277 2.35097e-005 2.03171e-006 8.05029e-007 -3.6909 4.15185 1.0211 -1.14e-005 2.0855e-006 3 -8.02976 -4.95144 -0.697647 176.148 -3.68329 3.63133 180 7.01514e-015 178.79 178.365 5.11643 179.675 3.99226e-006 -3.03929e-006 0.0567329 -18.9339 68.1096 19.6512 8.13649 25.2327 -3.48774 -174.534 -4.13907 -2.48293 4.5067e-006 -1.99009e-005 -1.19326 -2.67264 -7.44237 -0.00688241 -8.8353e-007 2.87672e-007 -0.139624 19.8143 69.2381 -20.6189 -8.13649 25.2327 3.48774 
58.4535 96.9477 26.3093 0.00276413 -4.62761 2.36669 0.077483 -0.66332 -0.328307 0.157372 2.67575 -0.654032 0.165298 4.32078 -0.657178 -4.64844 7.31063 2.02366 3.60545 8.79869 1.11759 70.7653 -5.04176 -3.84675 95.9562 10.2818 22.8519 2.18663e-014 -1.43125e-014 9.54166e-015 -0.550274 12.6338 -0.826204 -2.71202e-005 -4.22651e-007 -3.0078 8.03024 -4.95135 0.697618 -64.1412 -2.02435 1.77901 -101.178 11.7306 -12.3482 2.35097e-005 2.03171e-006 8.05029e-007 -3.70257 4.30362 1.02618 -1.14e-005 2.0855e-006 3 -8.02976 -4.95144 -0.697647 176.144 -3.66677 3.63105 180 7.01514e-015 178.79 178.365 5.1175 179.675 3.99226e-006 -3.03929e-006 0.0567329 -18.9318 68.1072 19.6489 8.13649 25.2327 -3.48774 -174.535 -4.12876 -2.48292 4.5067e-006 -1.99009e-005 -1.19328 -2.67588 -7.44008 -0.0073276 -8.8353e-007 2.87672e-007 -0.139624 19.8119 69.2356 -20.6163 -8.13649 25.2327 3.48774 
58.4616 96.9526 26.307 0.00271349 -4.61646 2.35596 0.077513 -0.663086 -0.329051 0.157146 2.67622 -0.655236 0.165095 4.32125 -0.658382 -4.62261 7.38324 2.03231 3.60661 8.78897 1.12961 70.7349 -5.06491 -3.85619 95.988 10.1571 23.0248 -9.54166e-015 1.03368e-014 3.18055e-015 -0.668959 12.7981 -0.808073 -2.71202e-005 -4.22651e-007 -3.0078 8.03024 -4.95135 0.697618 -64.1427 -2.03103 1.78285 -101.161 11.623 -12.369 2.35097e-005 2.03171e-006 8.05029e-007 -3.71428 4.45659 1.0313 -1.14e-005 2.0855e-006 3 -8.02976 -4.95144 -0.697647 176.141 -3.65034 3.63078 180 7.01514e-015 178.79 178.364 5.11859 179.675 3.99226e-006 -3.03929e-006 0.0567329 -18.9297 68.1047 19.6467 8.13649 25.2327 -3.48774 -174.537 -4.11874 -2.48295 4.5067e-006 -1.99009e-005 -1.19331 -2.67915 -7.43748 -0.00777765 -8.8353e-007 2.87672e-007 -0.139624 19.8094 69.2329 -20.6136 -8.13649 25.2327 3.48774 
58.4452 96.9509 26.307 0.00266206 -4.60532 2.3452 0.0775437 -0.662844 -0.32979 0.15692 2.67671 -0.656428 0.164892 4.32173 -0.659577 -4.59683 7.45581 2.04095 3.60785 8.77928 1.1416 70.7046 -5.08803 -3.86562 96.0203 10.0325 23.1977 4.37326e-015 -7.95139e-016 3.18055e-015 -0.787675 12.9627 -0.789957 -2.71202e-005 -4.22651e-007 -3.0078 8.03024 -4.95135 0.697618 -64.1443 -2.03777 1.78673 -101.143 11.5151 -12.39 2.35097e-005 2.03171e-006 8.05029e-007 -3.72601 4.60985 1.03643 -1.14e-005 2.0855e-006 3 -8.02976 -4.95144 -0.697647 176.137 -3.63392 3.63051 180 7.01514e-015 178.79 178.363 5.11968 179.676 3.99226e-006 -3.03929e-006 0.0567329 -18.9276 68.1023 19.6445 8.13649 25.2327 -3.48774 -174.539 -4.10879 -2.48299 4.5067e-006 -1.99009e-005 -1.19334 -2.68243 -7.43481 -0.00822891 -8.8353e-007 2.87672e-007 -0.139624 19.8068 69.2303 -20.6109 -8.13649 25.2327 3.48774 
58.4513 96.9474 26.3024 0.00262478 -4.59415 2.3345 0.077573 -0.662617 -0.330538 0.156693 2.67716 -0.657642 0.164689 4.32219 -0.660792 -4.57104 7.52846 2.04964 3.60895 8.76954 1.15365 70.6741 -5.11121 -3.87506 96.0537 9.90841 23.3705 -1.23246e-014 7.15625e-015 -0 -0.906649 13.1268 -0.771759 -2.71202e-005 -4.22651e-007 -3.0078 8.03024 -4.95135 0.697618 -64.1458 -2.04437 1.79053 -101.125 11.4077 -12.4107 2.35097e-005 2.03171e-006 8.05029e-007 -3.73777 4.76251 1.04156 -1.14e-005 2.0855e-006 3 -8.02976 -4.95144 -0.697647 176.134 -3.61747 3.63024 180 7.01514e-015 178.79 178.362 5.12077 179.676 3.99226e-006 -3.03929e-006 0.0567329 -18.9255 68.0999 19.6422 8.13649 25.2327 -3.48774 -174.54 -4.09869 -2.48302 4.5067e-006 -1.99009e-005 -1.19337 -2.68569 -7.43229 -0.00867774 -8.8353e-007 2.87672e-007 -0.139624 19.8043 69.2276 -20.6083 -8.13649 25.2327 3.48774 
58.4654 96.95 26.3062 0.00261668 -4.58289 2.32397 0.0775986 -0.662425 -0.331305 0.156464 2.67754 -0.658907 0.164484 4.32257 -0.662058 -4.54515 7.60135 2.05844 3.60971 8.75965 1.16583 70.6427 -5.13456 -3.88456 96.0886 9.78551 23.5434 1.59028e-014 -1.11319e-014 3.18055e-015 -1.0261 13.2897 -0.753382 -2.71202e-005 -4.22651e-007 -3.0078 8.03024 -4.95135 0.697618 -64.1474 -2.05059 1.79412 -101.108 11.3011 -12.4312 2.35097e-005 2.03171e-006 8.05029e-007 -3.74955 4.91368 1.04666 -1.14e-005 2.0855e-006 3 -8.02976 -4.95144 -0.697647 176.13 -3.60091 3.62996 180 7.01514e-015 178.79 178.361 5.12182 179.676 3.99226e-006 -3.03929e-006 0.0567329 -18.9234 68.0974 19.6399 8.13649 25.2327 -3.48774 -174.542 -4.08823 -2.48298 4.5067e-006 -1.99009e-005 -1.19339 -2.68891 -7.43015 -0.00912048 -8.8353e-007 2.87672e-007 -0.139624 19.802 69.2252 -20.6057 -8.13649 25.2327 3.48774 
58.4538 96.9515 26.2727 0.00265266 -4.57149 2.31368 0.0776185 -0.662291 -0.332104 0.156231 2.67781 -0.660253 0.164276 4.32284 -0.663406 -4.51912 7.6746 2.06744 3.60993 8.74953 1.17824 70.61 -5.15817 -3.89413 96.1254 9.66435 23.7164 2.8625e-014 -1.59028e-014 6.36111e-015 -1.14627 13.4507 -0.734726 -2.71202e-005 -4.22651e-007 -3.0078 8.03024 -4.95135 0.697618 -64.1491 -2.05622 1.7974 -101.092 11.1958 -12.4509 2.35097e-005 2.03171e-006 8.05029e-007 -3.76134 5.06247 1.0517 -1.14e-005 2.0855e-006 3 -8.02976 -4.95144 -0.697647 176.127 -3.58421 3.62965 180 7.01514e-015 178.79 178.36 5.1228 179.676 3.99226e-006 -3.03929e-006 0.0567329 -18.9213 68.0948 19.6376 8.13649 25.2327 -3.48774 -174.544 -4.07717 -2.48285 4.5067e-006 -1.99009e-005 -1.19341 -2.69204 -7.42862 -0.00955349 -8.8353e-007 2.87672e-007 -0.139624 19.7999 69.223 -20.6035 -8.13649 25.2327 3.48774 
58.4748 96.9517 26.2752 0.00274755 -4.5599 2.30373 0.0776304 -0.662236 -0.332946 0.155992 2.67792 -0.661712 0.164064 4.32295 -0.664865 -4.49289 7.74837 2.07669 3.6094 8.73909 1.19094 70.5755 -5.18214 -3.90381 96.1646 9.5455 23.8894 5.96354e-015 7.95139e-016 6.36111e-015 -1.26736 13.6091 -0.715695 -2.71202e-005 -4.22651e-007 -3.0078 8.03024 -4.95135 0.697618 -64.1509 -2.06102 1.80024 -101.077 11.0924 -12.4698 2.35097e-005 2.03171e-006 8.05029e-007 -3.77315 5.20796 1.05666 -1.14e-005 2.0855e-006 3 -8.02976 -4.95144 -0.697647 176.123 -3.56728 3.62932 180 7.01514e-015 178.79 178.36 5.12373 179.676 3.99226e-006 -3.03929e-006 0.0567329 -18.919 68.0922 19.6352 8.13649 25.2327 -3.48774 -174.545 -4.06531 -2.48259 4.5067e-006 -1.99009e-005 -1.19342 -2.69508 -7.42792 -0.00997313 -8.8353e-007 2.87672e-007 -0.139624 19.7981 69.2211 -20.6016 -8.13649 25.2327 3.48774 
58.4827 96.9535 26.2651 0.00291622 -4.54805 2.29423 0.0776323 -0.662281 -0.333844 0.155748 2.67783 -0.663314 0.163847 4.32286 -0.666468 -4.46638 7.82277 2.08626 3.60791 8.72824 1.20403 70.5387 -5.20658 -3.91363 96.2067 9.42954 24.0625 -5.1684e-015 1.59028e-015 -0 -1.38962 13.7641 -0.696191 -2.71202e-005 -4.22651e-007 -3.0078 8.03024 -4.95135 0.697618 -64.153 -2.06478 1.80251 -101.064 10.9913 -12.4875 2.35097e-005 2.03171e-006 8.05029e-007 -3.78496 5.34928 1.06151 -1.14e-005 2.0855e-006 3 -8.02976 -4.95144 -0.697647 176.12 -3.55009 3.62896 180 7.01514e-015 178.79 178.359 5.12454 179.676 3.99226e-006 -3.03929e-006 0.0567329 -18.9167 68.0895 19.6327 8.13649 25.2327 -3.48774 -174.547 -4.0524 -2.48217 4.5067e-006 -1.99009e-005 -1.19343 -2.69798 -7.42828 -0.0103758 -8.8353e-007 2.87672e-007 -0.139624 19.7967 69.2196 -20.6001 -8.13649 25.2327 3.48774 
58.4782 96.9542 26.2643 0.00317345 -4.53591 2.28525 0.0776218 -0.662449 -0.334809 0.155495 2.6775 -0.665089 0.163624 4.32252 -0.668244 -4.43954 7.89796 2.09622 3.60525 8.7169 1.21759 70.4991 -5.23157 -3.9236 96.252 9.31703 24.2357 4.37326e-015 -2.38542e-015 3.18055e-015 -1.51325 13.9151 -0.676115 -2.71202e-005 -4.22651e-007 -3.0078 8.03024 -4.95135 0.697618 -64.1552 -2.06726 1.80411 -101.052 10.8931 -12.5038 2.35097e-005 2.03171e-006 8.05029e-007 -3.79676 5.48552 1.06623 -1.14e-005 2.0855e-006 3 -8.02976 -4.95144 -0.697647 176.116 -3.53257 3.62856 180 7.01514e-015 178.79 178.358 5.12522 179.676 3.99226e-006 -3.03929e-006 0.0567329 -18.9142 68.0866 19.63 8.13649 25.2327 -3.48774 -174.549 -4.03824 -2.48155 4.5067e-006 -1.99009e-005 -1.19342 -2.70072 -7.42994 -0.0107577 -8.8353e-007 2.87672e-007 -0.139624 19.7958 69.2187 -20.5991 -8.13649 25.2327 3.48774 
